# xmcd
#
# Track frame offsets:
#       182
#       14282
#       22607
#       35582
#       44057
#       46512
#       47375
#       49052
#       50537
#       54435
#       57257
#       65882
#       77507
#       88382
#       102032
#       114107
#       124232
#       141482
#       154457
#       165932
#
# Disc length: 2398 seconds
#
# Revision: 1
# Processed by: cddbd v1.5PL3 Copyright (c) Steve Scherf et al.
# Submitted via: MusiCat 1.1
#
DISCID=05095c14
DTITLE=Classic Hits 30's and 40's - Classic Hits 30's and 40's
DYEAR=1994
DGENRE=
TTITLE0=As time goes by
TTITLE1=They can't take that away from me
TTITLE2=It had to be you
TTITLE3=Good morning to you
TTITLE4=Mei Mein Mr Shane
TTITLE5=Roll out the barrel
TTITLE6=Boogie Woogie Bugle Boy from Company B
TTITLE7=Apple Blossom Time
TTITLE8=Pennsylvania Polka
TTITLE9=The Victory Polka
TTITLE10=Louis
TTITLE11=Up a lazy river
TTITLE12=Animal Crackers in my soup
TTITLE13=I can't give you anything but love
TTITLE14=No two ways about love
TTITLE15=Blue of the night
TTITLE16=You made me love you
TTITLE17=The Trolley Song
TTITLE18=Till Then
TTITLE19=Give my regards to Broadway
EXTD=\n006 552163\n
EXTT0=
EXTT1=
EXTT2=
EXTT3=
EXTT4=
EXTT5=
EXTT6=
EXTT7=
EXTT8=
EXTT9=
EXTT10=
EXTT11=
EXTT12=
EXTT13=
EXTT14=
EXTT15=
EXTT16=
EXTT17=
EXTT18=
EXTT19=
PLAYORDER=
